<?xml version="1.0" encoding="UTF-8"?>
<!DOCTYPE svg PUBLIC "-//W3C//DTD SVG 1.1//EN" "http://www.w3.org/Graphics/SVG/1.1/DTD/svg11.dtd">
<svg version="1.1" xmlns="http://www.w3.org/2000/svg" xmlns:xlink="http://www.w3.org/1999/xlink" x="0" y="0" width="32" height="32" viewBox="0, 0, 32, 32">
  <g id="Layer_1" transform="translate(-238.733, -217.165)">
    <path d="M254.733,249.165 C245.897,249.165 238.733,242.002 238.733,233.165 C238.733,224.329 245.897,217.165 254.733,217.165 C263.57,217.165 270.733,224.329 270.733,233.165 C270.733,242.002 263.57,249.165 254.733,249.165 z" fill="#0174AA"/>
    <path d="M254.733,247.165 C247.001,247.165 240.733,240.897 240.733,233.165 C240.733,225.433 247.001,219.165 254.733,219.165 C262.465,219.165 268.733,225.433 268.733,233.165 C268.733,240.897 262.465,247.165 254.733,247.165 z" fill="#FAFAFA"/>
    <path d="M248.18,224.327 L254.417,224.327 Q258.338,224.327 260.247,225.35 Q262.155,226.372 262.155,228.455 Q262.155,231.328 258.558,232.816 Q263.048,233.657 263.048,236.905 Q263.048,239.118 261.01,240.554 Q258.972,241.99 253.874,241.99 L247.65,242.003 Q247.417,241.434 247.417,240.903 Q247.417,240.554 247.611,240.392 Q247.805,240.231 248.18,240.231 L249.125,240.231 Q249.203,238.561 249.203,232.881 Q249.203,227.757 249.125,226.1 L247.65,226.1 Q247.417,225.531 247.417,225.013 Q247.417,224.651 247.611,224.489 Q247.805,224.327 248.18,224.327 z M253.201,234.058 L253.201,237.086 Q253.201,238.574 253.55,239.04 Q253.9,239.506 255.466,239.506 Q257.096,239.506 257.84,238.904 Q258.584,238.302 258.584,236.931 Q258.584,235.456 257.685,234.692 Q256.785,233.929 254.909,233.929 Q254.081,233.929 253.201,234.058 z M253.201,231.69 Q253.848,231.82 254.78,231.82 Q256.333,231.82 257.012,231.244 Q257.691,230.668 257.691,229.426 Q257.691,228.08 256.967,227.446 Q256.242,226.812 254.78,226.812 Q254.016,226.812 253.214,226.941 Q253.201,228.171 253.201,231.69 z" fill="#0074AA"/>
  </g>
</svg>
